<svg width="512" height="512" viewBox="0 0 512 512" fill="none" xmlns="http://www.w3.org/2000/svg">
  <defs>
    <linearGradient id="bgGradient" x1="64" y1="48" x2="448" y2="464" gradientUnits="userSpaceOnUse">
      <stop stop-color="#22C55E"/>
      <stop offset="1" stop-color="#16A34A"/>
    </linearGradient>
    <linearGradient id="cartGradient" x1="128" y1="128" x2="416" y2="384" gradientUnits="userSpaceOnUse">
      <stop stop-color="#0F172A"/>
      <stop offset="1" stop-color="#020617"/>
    </linearGradient>
  </defs>
  <rect x="48" y="32" width="416" height="448" rx="112" fill="#020617"/>
  <rect x="72" y="56" width="368" height="400" rx="104" fill="url(#bgGradient)"/>
  <rect x="104" y="104" width="304" height="304" rx="80" fill="url(#cartGradient)"/>
  <path d="M160 184H184L200 272H336L352 216H208" stroke="#BBF7D0" stroke-width="18" stroke-linecap="round" stroke-linejoin="round"/>
  <circle cx="216" cy="320" r="18" fill="#BBF7D0"/>
  <circle cx="320" cy="320" r="18" fill="#BBF7D0"/>
  <path d="M232 184C236 168 248 144 272 144C296 144 308 168 312 184" stroke="#BBF7D0" stroke-width="16" stroke-linecap="round"/>
  <path d="M184 152C188 140 198 120 220 120" stroke="#BBF7D0" stroke-width="12" stroke-linecap="round"/>
</svg>

